<?xml version="1.0" standalone="no"?>
<!DOCTYPE svg PUBLIC "-//W3C//DTD SVG 1.1//EN" "http://www.w3.org/Graphics/SVG/1.1/DTD/svg11.dtd" >
<svg xmlns="http://www.w3.org/2000/svg">
<metadata>Generated by IcoMoon</metadata>
<defs>
<font id="bdrcustom" horiz-adv-x="1024">
<font-face units-per-em="1024" ascent="960" descent="-64" />
<missing-glyph horiz-adv-x="1024" />
<glyph unicode="&#x20;" d="" horiz-adv-x="512" />
<glyph unicode="&#xe600;" d="M817.734 780.89h-5.269v70.874l45.188 35.272h-489.126l-295.349-256.747h195.899c-0.366-4.866-0.512-9.258-0.512-14.233 0-47.676 16.538-87.083 49.542-118.586 33.077-31.54 73.764-47.237 121.953-47.237 11.232 0 22.246 0.841 33.003 2.342-6.659-14.855-10.026-28.649-10.026-41.492 0-22.576 10.282-46.725 30.808-72.373-89.717-6.11-155.614-22.246-197.656-48.408-24.076-14.855-43.431-33.625-58.067-56.091-14.599-22.612-21.881-46.908-21.881-73.069 0-22.064 4.72-41.931 14.233-59.604 9.477-17.673 21.881-32.162 37.284-43.431 15.33-11.38 33.077-20.819 53.091-28.503 19.978-7.647 39.809-13.062 59.567-16.136s39.406-4.573 58.836-4.573c30.808 0 61.653 3.952 92.717 11.855 31.028 7.977 60.116 19.759 87.302 35.418 27.149 15.551 49.213 36.772 66.153 63.373 16.867 26.71 25.356 56.714 25.356 89.937 0 25.173-5.123 48.114-15.405 68.935-10.208 20.746-22.758 37.833-37.65 51.079-14.855 13.281-29.711 25.502-44.603 36.516-14.855 11.086-27.442 22.283-37.687 33.882-10.245 11.526-15.368 22.978-15.368 34.284 0 11.27 3.988 22.1 11.928 32.638 7.903 10.538 17.563 20.673 28.832 30.442 11.27 9.733 22.576 20.527 33.846 32.309s20.892 27.039 28.832 45.736c7.977 18.697 11.928 39.882 11.928 63.482 0 30.772-5.818 55.945-17.27 76.179-1.318 2.342-2.744 4.135-4.281 6.915v0l130.149 106.731v-47.749h-6.22c-5.16 0-9.733-3.184-9.733-8.306v-313.79c0-3.257 1.903-6.11 4.464-7.721 5.085-6.732 14.489-11.232 25.393-11.232 11.159 0 20.673 4.829 25.466 11.928 2.012 1.683 3.036 4.171 3.036 7.025v313.826c-0.146 5.123-3.659 8.306-8.708 8.306zM566.951 280.715c2.598-1.72 8.452-6.366 17.636-13.794 9.258-7.428 15.551-13.025 18.88-16.941 3.33-3.805 8.196-9.514 14.599-17.27 6.44-7.721 10.757-14.416 13.025-19.978 2.305-5.672 4.61-12.477 6.988-20.453 2.268-7.867 3.367-15.953 3.367-24.149 0-38.968-14.965-67.873-44.932-86.57-30.004-18.697-65.787-28.064-107.316-28.064-21.002 0-41.638 2.488-61.909 7.318-20.234 4.829-39.626 12.184-58.067 21.954-18.441 9.733-33.333 23.344-44.603 40.687-11.307 17.49-16.941 37.54-16.941 60.043 0 23.601 6.403 44.127 19.246 61.543 12.769 17.454 29.564 30.625 50.347 39.589 20.746 9.037 41.785 15.405 63.044 19.209 21.295 3.879 42.992 5.854 65.019 5.854 10.208 0 18.185-0.585 23.82-1.574 1.025-0.512 6.915-4.72 17.673-12.733 10.903-8.013 17.563-12.879 20.124-14.672zM559.267 510.715c-16.941-20.271-40.541-30.406-70.801-30.406-27.149 0-51.006 10.903-71.496 32.747-20.563 21.771-35.272 46.505-44.237 74.166s-13.465 54.848-13.465 81.521c0 31.32 8.233 57.957 24.625 79.984 16.429 22.064 39.993 33.113 70.764 33.113 27.186 0 51.152-11.526 71.898-34.65 20.783-23.051 35.674-48.957 44.603-77.679 9.001-28.686 13.429-56.091 13.429-82.289 0.037-30.772-8.415-56.274-25.319-76.508z" horiz-adv-x="951" />
<glyph unicode="&#xe601;" d="M448.621 647.449c-13.831 15.441-29.821 23.088-47.968 23.088-20.49 0-36.187-7.355-47.164-22.1-10.94-14.636-16.429-32.455-16.429-53.311 0-17.783 3-35.858 9.001-54.336s15.807-34.906 29.527-49.432c13.648-14.562 29.6-21.844 47.676-21.844 20.161 0 35.858 6.769 47.164 20.271 11.27 13.465 16.904 30.479 16.904 51.006 0 17.49-2.963 35.784-8.964 54.848-5.964 19.172-15.88 36.407-29.748 51.81zM450.414 354.662c-3.769 0.695-9.037 1.062-15.88 1.062-14.672 0-29.161-1.281-43.358-3.915-14.197-2.488-28.211-6.769-42.005-12.806-13.868-5.964-25.063-14.745-33.589-26.381-8.562-11.599-12.843-25.283-12.843-41.017 0-15.001 3.769-28.357 11.307-40.029 7.501-11.563 17.417-20.636 29.711-27.149s25.21-11.416 38.712-14.599c13.502-3.22 27.259-4.903 41.273-4.903 27.699 0 51.518 6.257 71.532 18.734 19.978 12.477 29.967 31.722 29.967 57.738 0 5.416-0.768 10.83-2.268 16.063-1.574 5.306-3.147 9.879-4.647 13.648-1.537 3.732-4.427 8.159-8.708 13.281-4.281 5.196-7.538 9.001-9.733 11.489-2.268 2.634-6.44 6.366-12.623 11.307-6.11 5.012-10.026 8.086-11.745 9.221-1.72 1.208-6.184 4.464-13.356 9.77-7.098 5.342-11.050 8.159-11.745 8.489zM829.845 838.738c-32.199 32.235-70.984 48.298-116.354 48.298h-548.839c-45.371 0-84.119-16.063-116.354-48.298-32.235-32.162-48.298-70.984-48.298-116.354v-548.839c0-45.371 16.063-84.192 48.298-116.427 32.235-32.089 71.057-48.225 116.354-48.225h548.839c45.371 0 84.155 16.136 116.354 48.298 32.235 32.235 48.335 70.947 48.335 116.354v548.839c0 45.371-16.099 84.192-48.335 116.354zM642.691 669.879c3.367 0 5.708-2.122 5.708-5.525v-209.181c0-1.903-0.695-3.549-2.012-4.683-3.184-4.72-9.55-7.977-16.977-7.977-7.245 0-13.538 3.036-16.904 7.501-1.72 1.062-3 2.963-3 5.16v209.181c0 3.44 3.074 5.525 6.513 5.525h4.135v31.906l-86.753-71.166c0.987-1.866 1.976-3.074 2.854-4.61 7.647-13.502 11.489-30.26 11.489-50.786 0-15.734-2.598-29.857-7.94-42.334-5.306-12.477-11.709-22.612-19.209-30.479s-15.001-15.074-22.539-21.552c-7.538-6.513-13.977-13.245-19.209-20.307-5.342-6.988-7.977-14.27-7.977-21.771s3.44-15.148 10.282-22.832c6.805-7.721 15.184-15.184 25.1-22.576 9.916-7.318 19.868-15.478 29.748-24.332 9.916-8.854 18.258-20.271 25.1-34.102 6.878-13.868 10.282-29.161 10.282-45.956 0-22.137-5.635-42.151-16.904-59.97-11.307-17.71-26.015-31.87-44.091-42.224-18.148-10.464-37.504-18.331-58.213-23.637-20.673-5.269-41.236-7.903-61.763-7.903-12.952 0-26.052 0.987-39.187 3.036-13.172 2.086-26.418 5.672-39.736 10.794-13.319 5.16-25.173 11.416-35.382 19.026-10.282 7.465-18.551 17.16-24.881 28.942-6.366 11.782-9.514 25.027-9.514 39.736 0 17.454 4.866 33.625 14.599 48.701 9.77 15.001 22.649 27.478 38.712 37.394 28.028 17.454 71.971 28.211 131.794 32.272-13.648 17.087-20.527 33.186-20.527 48.225 0 8.562 2.232 17.746 6.659 27.662-7.134-0.987-14.489-1.537-22.027-1.537-32.126 0-59.238 10.428-81.302 31.43s-33.003 47.31-33.003 79.070c0 3.33 0.11 6.257 0.366 9.477h-130.624l196.923 171.202h326.084l-30.15-23.564v-47.237h3.476z" horiz-adv-x="878" />
<glyph unicode="&#xe602;" d="M288.434 740.678c66.117 0 104.609-6.878 133.331-24.698 45.371-28.613 71.057-80.936 71.057-150.089 0-87.851-36.553-141.198-109.585-157.956 89.827-17.746 104.645-48.408 106.585-221.109 2.086-60.226 4.976-72.117 23.71-104.755h-139.222c-12.843 23.747-15.88 45.517-18.77 149.175-2.012 72.044-6.915 92.754-23.71 109.548-13.758 14.818-31.576 19.759-74.057 19.759h-52.396v-278.481h-132.198v658.608h215.255zM205.375 453.38h51.481c33.552 0 54.261 4.976 68.129 15.77 23.637 16.794 34.504 44.493 34.504 82.985 0 65.166-29.637 91.876-102.669 91.876h-51.444v-190.63zM951.322 431.279v-335.999h-91.107l-0.878 29.491c-0.914 12.367-0.914 15.184-1.939 38.894-20.856-53.164-68.275-81.594-136.661-81.594s-118.586 26.6-147.089 75.886c-29.491 49.359-40.797 121.513-40.797 244.819 0 143.32 12.331 210.718 45.517 260.991 35.089 51.335 91.144 76.911 168.932 76.911 132.819 0 197.435-65.458 197.435-201.204h-123.342c-1.939 76.911-24.734 111.012-74.057 111.012-34.175 0-58.836-19.941-69.3-55.067-10.391-37.944-14.233-86.314-14.233-189.789 0-180.349 19.868-234.427 85.4-234.427 33.223 0 60.702 21.808 71.166 55.981 7.574 27.515 11.416 59.787 11.416 114.854h-87.302v89.205l206.839 0.037z" />
<glyph unicode="&#xe603;" d="M226.268 641.851h-42.883v-158.871h42.883c27.955 0 45.188 4.135 56.787 13.062 19.722 14.014 28.759 37.101 28.759 69.191-0.037 54.372-24.698 76.618-85.546 76.618zM829.845 838.738c-32.199 32.235-70.984 48.298-116.354 48.298h-548.839c-45.371 0-84.119-16.063-116.354-48.298-32.235-32.162-48.298-70.984-48.298-116.354v-548.839c0-45.371 16.063-84.192 48.298-116.427 32.235-32.089 71.057-48.225 116.354-48.225h548.839c45.371 0 84.155 16.136 116.354 48.298 32.235 32.235 48.335 70.947 48.335 116.354v548.839c0 45.371-16.099 84.192-48.335 116.354zM324.181 173.544c-10.72 19.795-13.245 37.869-15.697 124.258-1.683 60.043-5.745 77.313-19.759 91.327-11.489 12.367-26.344 16.429-61.763 16.429h-43.578v-232.012h-110.207v548.839h179.398c55.067 0 87.156-5.708 111.048-20.563 37.833-23.783 59.238-67.471 59.238-125.062 0-73.179-30.442-117.707-91.327-131.648 74.862-14.782 87.193-40.395 88.802-184.3 1.756-50.163 4.171-60.116 19.832-87.266h-115.988zM804.964 184.558h-75.886l-0.768 24.515c-0.805 10.355-0.805 12.733-1.61 32.455-17.454-44.237-56.897-67.946-113.939-67.946-56.97 0-98.791 22.1-122.501 63.263-24.588 41.090-34.028 101.279-34.028 204.022 0 119.427 10.208 175.592 37.907 217.45 29.235 42.81 75.996 64.104 140.832 64.104 110.646 0 164.505-54.518 164.505-167.652h-102.816c-1.61 64.031-20.636 92.461-61.726 92.461-28.467 0-49.066-16.648-57.774-45.809-8.598-31.649-11.819-72.044-11.819-158.212 0-150.272 16.575-195.313 71.166-195.313 27.662 0 50.567 18.148 59.275 46.652 6.33 22.868 9.514 49.798 9.514 95.681h-72.74v74.313h172.409v-279.982z" horiz-adv-x="878" />
<glyph unicode="&#xe604;" d="M1023.695 199.889c-4.903 41.309-27.662 71.642-70.251 81.485-9.55 2.232-19.722 2.342-29.637 2.159-38.675-0.731-62.201 17.527-67.836 55.725-2.488 16.758-2.086 34.028-0.878 51.006 1.281 17.673 3.732 35.564 8.306 52.652 4.866 18.404 9.294 36.516 9.11 55.652-0.768 9.44-0.805 19.026-2.268 28.393-9.183 59.787-54.518 107.097-114.89 120.452-58.397 13.025-117.818-11.307-152.724-59.97-13.538-18.916-30.296-36.077-47.529-51.847-23.526-21.112-55.213-21.625-80.13-3.22-19.722 14.526-36.845 32.309-50.494 52.433-46.249 67.836-135.746 86.863-204.498 41.711-54.811-35.968-74.605-94.108-64.104-158.687 2.963-18.185 8.598-35.82 11.636-53.969 4.317-25.173 6.44-50.676 2.086-76.252-4.903-29.125-20.527-46.469-47.968-51.956-7.245-1.5-14.928-1.427-22.356-1.793-6.44-0.439-12.989 0-19.355-0.768-22.722-3.22-40.395-15.843-56.86-30.845-10.647-9.696-17.16-21.552-19.978-35.308-1.683-8.379-2.927-16.904-3-25.246-0.293-27.624 4.244-53.932 23.966-75.118 24.807-26.674 55.067-39.48 91.4-32.711 54.445 10.062 88.765 62.788 76.508 116.939-3.074 13.172-9.001 25.539-13.025 38.456-8.745 27.991-4.903 53.311 15.99 74.935 10.428 10.83 23.197 18.331 37.028 23.82 32.382 12.916 66.153 15.405 100.364 10.976 22.1-2.854 43.066-9.477 61.836-22.1 34.211-22.905 40.505-60.335 22.21-93.961-23.637-43.504-13.208-96.815 26.125-127.221 25.393-19.612 54.409-24.771 85.546-21.771 73.691 7.061 117.415 85.253 80.094 150.968-15.624 27.478-12.367 60.446 12.513 83.497 10.428 9.696 22.576 16.392 35.82 21.331 30.881 11.599 62.824 13.538 95.242 9.258 24.076-3.22 47.054-10.318 67.105-24.771 23.82-17.27 35.747-40.249 30.918-69.776-1.793-11.123-5.708-21.99-9.843-32.528-7.757-19.246-10.391-39.004-7.061-59.494 7.318-44.968 45.224-78.63 91.474-80.277 41.382-1.427 86.57 26.747 96.449 72.008 3.367 15.111 4.829 30.333 2.963 45.736zM512.725 286.35c-61.945 0-100.986 50.676-100.803 100.95 0.146 55.396 45.371 99.779 101.352 99.633 55.433-0.073 100.401-45.005 100.255-100.108-0.219-50.090-39.041-100.474-100.803-100.474z" />
<glyph unicode="&#xe605;" d="M439.804 533.912c-39.993 0.146-72.264-31.54-72.373-71.13-0.146-35.858 27.735-72.117 72.008-72.117 44.127 0 71.861 35.968 71.971 71.752 0.073 39.333-32.016 71.459-71.605 71.496zM829.845 838.738c-32.199 32.235-70.984 48.298-116.354 48.298h-548.839c-45.371 0-84.119-16.063-116.354-48.298-32.235-32.162-48.298-70.984-48.298-116.354v-548.839c0-45.371 16.063-84.192 48.298-116.427 32.235-32.089 71.057-48.225 116.354-48.225h548.839c45.371 0 84.155 16.136 116.354 48.298 32.235 32.235 48.335 70.947 48.335 116.354v548.839c0 45.371-16.099 84.192-48.335 116.354zM802.257 296.265c-7.025-32.309-39.333-52.506-68.861-51.444-33.040 1.171-60.152 25.246-65.349 57.372-2.378 14.599-0.512 28.723 5.049 42.48 2.963 7.538 5.745 15.257 7.025 23.234 3.44 21.112-5.085 37.504-22.1 49.798-14.306 10.318-30.735 15.405-47.932 17.71-23.161 3.036-45.992 1.647-68.019-6.659-9.44-3.513-18.148-8.306-25.575-15.184-17.783-16.502-20.124-40.029-8.964-59.677 26.674-46.944-4.573-102.779-57.189-107.829-22.246-2.159-42.956 1.537-61.104 15.551-28.101 21.734-35.564 59.787-18.66 90.851 13.025 24.003 8.562 50.786-15.88 67.105-13.429 9.074-28.393 13.794-44.2 15.843-24.442 3.184-48.554 1.391-71.678-7.83-9.916-3.915-19.026-9.294-26.454-17.050-14.892-15.441-17.673-33.552-11.416-53.53 2.89-9.183 7.098-18.039 9.258-27.478 8.745-38.675-15.77-76.325-54.665-83.497-25.942-4.866-47.566 4.281-65.275 23.344-14.050 15.111-17.27 33.955-17.087 53.676 0.037 5.964 0.914 12.075 2.159 18.039 2.012 9.843 6.659 18.295 14.27 25.173 11.782 10.72 24.405 19.722 40.614 22.064 4.573 0.549 9.221 0.256 13.831 0.549 5.342 0.293 10.757 0.219 15.953 1.281 19.612 3.915 30.772 16.319 34.284 37.138 3.111 18.258 1.574 36.48-1.5 54.445-2.195 12.952-6.184 25.539-8.306 38.529-7.501 46.14 6.659 87.668 45.773 113.353 49.103 32.309 113.061 18.734 146.101-29.748 9.733-14.38 21.99-27.039 36.077-37.431 17.783-13.135 40.431-12.806 57.226 2.305 12.331 11.232 24.295 23.564 33.955 37.028 24.954 34.76 67.398 52.139 109.109 42.81 43.139-9.514 75.484-43.322 82.070-86.058 1.025-6.696 1.062-13.538 1.61-20.271 0.146-13.685-3-26.637-6.513-39.772-3.257-12.221-5.012-24.99-5.928-37.577-0.878-12.148-1.135-24.442 0.658-36.443 3.988-27.259 20.819-40.322 48.445-39.772 7.061 0.146 14.343 0.037 21.148-1.574 30.406-6.988 46.652-28.649 50.201-58.177 1.318-11.050 0.293-21.954-2.159-32.674z" horiz-adv-x="878" />
<glyph unicode="&#xe606;" d="M170.667 512v-298.667h128v298.667h-128zM426.667 512v-298.667h128v298.667h-128zM85.333-0h810.667v128h-810.667v-128zM682.667 512v-298.667h128v298.667h-128zM490.667 896l-405.333-213.333v-85.333h810.667v85.333l-405.333 213.333z" />
<glyph unicode="&#xe607;" d="M426.667 85.334v256h170.667v-256h213.333v341.333h128l-426.667 384-426.667-384h128v-341.333z" />
<glyph unicode="&#xe608;" d="M853.333 768h-682.667c-47.147 0-84.907-38.187-84.907-85.333l-0.427-512c0-47.147 38.187-85.333 85.333-85.333h682.667c47.147 0 85.333 38.187 85.333 85.333v512c0 47.147-38.187 85.333-85.333 85.333zM853.333 597.334l-341.333-213.333-341.333 213.333v85.333l341.333-213.333 341.333 213.333v-85.333z" />
<glyph unicode="&#xe609;" d="M810.667 554.667h-170.667v256h-256v-256h-170.667l298.667-298.667 298.667 298.667zM213.333 170.667v-85.333h597.333v85.333h-597.333z" />
<glyph unicode="&#xe60a;" d="M512 426.667c94.293 0 170.667 76.587 170.667 170.667 0 94.293-76.373 170.667-170.667 170.667s-170.667-76.373-170.667-170.667c0-94.080 76.373-170.667 170.667-170.667zM512 341.334c-113.707 0-341.333-56.96-341.333-170.667v-85.333h682.667v85.333c0 113.707-227.627 170.667-341.333 170.667z" />
<glyph unicode="&#xe60b;" d="M128 170.667h768v85.333h-768v-85.333zM128 384h768v85.333h-768v-85.333zM128 682.667v-85.333h768v85.333h-768z" />
<glyph unicode="&#xe60c;" d="M117.268 887.036h632.885v-124.916l-523.557-646.643h523.557v-106.585h-676.976v122.172l525.423 649.387h-481.332v106.585z" horiz-adv-x="878" />
<glyph unicode="&#xe60d;" d="M829.845 838.738c-32.199 32.235-70.984 48.298-116.354 48.298h-548.839c-45.371 0-84.119-16.063-116.354-48.298-32.235-32.162-48.298-70.984-48.298-116.354v-548.839c0-45.371 16.063-84.192 48.298-116.427 32.235-32.089 71.057-48.225 116.354-48.225h548.839c45.371 0 84.155 16.136 116.354 48.298 32.235 32.235 48.335 70.947 48.335 116.354v548.839c0 45.371-16.099 84.192-48.335 116.354zM664.755 657.402l-349.061-431.095h349.061v-71.057h-451.329v81.448l350.269 432.961h-320.888v71.020h421.948v-83.278z" horiz-adv-x="878" />
<glyph unicode="&#xe60e;" d="M512 853.334c-235.733 0-426.667-190.933-426.667-426.667s190.933-426.667 426.667-426.667 426.667 190.933 426.667 426.667-190.933 426.667-426.667 426.667zM725.333 384h-170.667v-170.667h-85.333v170.667h-170.667v85.333h170.667v170.667h85.333v-170.667h170.667v-85.333z" />
<glyph unicode="&#xe60f;" d="M554.667 640h-85.333v-170.667h-170.667v-85.333h170.667v-170.667h85.333v170.667h170.667v85.333h-170.667v170.667zM512 853.334c-235.733 0-426.667-190.933-426.667-426.667s190.933-426.667 426.667-426.667 426.667 190.933 426.667 426.667-190.933 426.667-426.667 426.667zM512 85.334c-188.16 0-341.333 153.173-341.333 341.333s153.173 341.333 341.333 341.333 341.333-153.173 341.333-341.333-153.173-341.333-341.333-341.333z" />
<glyph unicode="&#xe610;" d="M512 853.334c-235.733 0-426.667-190.933-426.667-426.667s190.933-426.667 426.667-426.667 426.667 190.933 426.667 426.667-190.933 426.667-426.667 426.667zM725.333 384h-426.667v85.333h426.667v-85.333z" />
<glyph unicode="&#xe611;" d="M298.667 469.334v-85.333h426.667v85.333h-426.667zM512 853.334c-235.733 0-426.667-190.933-426.667-426.667s190.933-426.667 426.667-426.667 426.667 190.933 426.667 426.667-190.933 426.667-426.667 426.667zM512 85.334c-188.16 0-341.333 153.173-341.333 341.333s153.173 341.333 341.333 341.333 341.333-153.173 341.333-341.333-153.173-341.333-341.333-341.333z" />
<glyph unicode="&#xe612;" d="M825.813 510.507c-29.013 146.773-158.507 257.493-313.813 257.493-123.307 0-230.187-69.973-283.733-172.16-128.213-13.867-228.267-122.453-228.267-254.507 0-141.44 114.56-256 256-256h554.667c117.76 0 213.333 95.573 213.333 213.333 0 112.64-87.68 203.947-198.187 211.84zM725.333 384l-213.333-213.333-213.333 213.333h128v170.667h170.667v-170.667h128z" />
<glyph unicode="&#xe91f;" d="M896 832v-832h-672c-53.026 0-96 42.98-96 96s42.974 96 96 96h608v768h-640c-70.398 0-128-57.6-128-128v-768c0-70.4 57.602-128 128-128h768v896h-64zM224.056 128v0c-0.018-0.002-0.038 0-0.056 0-17.672 0-32-14.326-32-32s14.328-32 32-32c0.018 0 0.038 0.002 0.056 0.002v-0.002h607.89v64h-607.89z" />
<glyph unicode="&#xe920;" d="M224 832h-192c-17.6 0-32-14.4-32-32v-704c0-17.6 14.4-32 32-32h192c17.6 0 32 14.4 32 32v704c0 17.6-14.4 32-32 32zM192 640h-128v64h128v-64zM544 832h-192c-17.6 0-32-14.4-32-32v-704c0-17.6 14.4-32 32-32h192c17.6 0 32 14.4 32 32v704c0 17.6-14.4 32-32 32zM512 640h-128v64h128v-64zM765.088 782.52l-171.464-86.394c-15.716-7.918-22.096-27.258-14.178-42.976l287.978-571.548c7.918-15.718 27.258-22.098 42.976-14.178l171.464 86.392c15.716 7.92 22.096 27.26 14.178 42.974l-287.978 571.55c-7.92 15.718-27.26 22.1-42.976 14.18zM928 96c0-17.673-14.327-32-32-32s-32 14.327-32 32c0 17.673 14.327 32 32 32s32-14.327 32-32z" horiz-adv-x="1152" />
<glyph unicode="&#xe921;" d="M1024 0v64h-64v384h64v64h-192v-64h64v-384h-192v384h64v64h-192v-64h64v-384h-192v384h64v64h-192v-64h64v-384h-192v384h64v64h-192v-64h64v-384h-64v-64h-64v-64h1088v64h-64zM512 960h64l512-320v-64h-1088v64l512 320z" horiz-adv-x="1088" />
<glyph unicode="&#xe953;" d="M320 576h128v-128h-128zM512 576h128v-128h-128zM704 576h128v-128h-128zM128 192h128v-128h-128zM320 192h128v-128h-128zM512 192h128v-128h-128zM320 384h128v-128h-128zM512 384h128v-128h-128zM704 384h128v-128h-128zM128 384h128v-128h-128zM832 960v-64h-128v64h-448v-64h-128v64h-128v-1024h960v1024h-128zM896 0h-832v704h832v-704z" />
<glyph unicode="&#xea7e;" d="M192 896v-768h768v768h-768zM896 192h-640v640h640v-640zM128 64v672l-64 64v-800h800l-64 64h-672zM352 704l160-160-192-192 96-96 192 192 160-160v416z" />
<glyph unicode="&#xea88;" d="M559.066 896c0 0-200.956 0-267.94 0-120.12 0-233.17-91.006-233.17-196.422 0-107.726 81.882-194.666 204.088-194.666 8.498 0 16.756 0.17 24.842 0.752-7.93-15.186-13.602-32.288-13.602-50.042 0-29.938 16.104-54.21 36.468-74.024-15.386 0-30.242-0.448-46.452-0.448-148.782 0.002-263.3-94.758-263.3-193.020 0-96.778 125.542-157.314 274.334-157.314 169.624 0 263.306 96.244 263.306 193.028 0 77.6-22.896 124.072-93.686 174.134-24.216 17.144-70.53 58.836-70.53 83.344 0 28.72 8.196 42.868 51.428 76.646 44.312 34.624 75.672 83.302 75.672 139.916 0 67.406-30.020 133.098-86.372 154.772h84.954l59.96 43.344zM465.48 240.542c2.126-8.972 3.284-18.206 3.284-27.628 0-78.2-50.392-139.31-194.974-139.31-102.842 0-177.116 65.104-177.116 143.3 0 76.642 92.126 140.444 194.964 139.332 24-0.254 46.368-4.116 66.67-10.69 55.826-38.826 95.876-60.762 107.172-105.004zM300.818 532.224c-69.038 2.064-134.636 77.226-146.552 167.86-11.916 90.666 34.37 160.042 103.388 157.99 69.010-2.074 134.638-74.814 146.558-165.458 11.906-90.66-34.39-162.458-103.394-160.392zM832 704v192h-64v-192h-192v-64h192v-192h64v192h192v64z" />
<glyph unicode="&#xea89;" d="M0.806 90.336c-0.244 2.532-0.452 5.070-0.584 7.63 0.13-2.56 0.34-5.098 0.584-7.63zM235.908 394.852c92.010-2.738 153.734 92.698 137.862 213.198-15.894 120.48-103.396 217.168-195.408 219.922-92.026 2.73-153.74-89.482-137.852-210 15.882-120.468 103.352-220.374 195.398-223.12zM1024 704v85.31c0 93.88-76.782 170.69-170.658 170.69h-682.656c-92.276 0-168.012-74.232-170.564-165.926 58.362 51.386 139.324 94.316 222.874 94.316 89.304 0 357.244 0 357.244 0l-79.948-67.618h-113.268c75.13-28.804 115.156-116.124 115.156-205.722 0-75.248-41.81-139.954-100.888-185.968-57.644-44.902-68.572-63.708-68.572-101.878 0-32.578 61.746-88 94.032-110.788 94.382-66.538 124.916-128.312 124.916-231.456 0-16.428-2.042-32.83-6.066-48.96h307.742c93.874 0 170.656 76.75 170.656 170.69v533.308h-192v-191.998h-64v192h-191.998v64h191.998v192h64v-192h192zM185.886 194.064c21.614 0 41.422 0.59 61.936 0.59-27.146 26.334-48.626 58.6-48.626 98.38 0 23.608 7.564 46.336 18.134 66.52-10.782-0.77-21.79-0.994-33.126-0.994-74.356 0-137.506 24.076-184.204 63.854v-67.242l0.006-201.73c53.44 25.374 116.888 40.622 185.88 40.622zM3.42 72.742c-1.112 5.458-1.966 11.006-2.542 16.634 0.574-5.628 1.43-11.176 2.542-16.634zM455.45 7.154c-15.058 58.806-68.454 87.964-142.888 139.568-27.072 8.732-56.894 13.874-88.894 14.208-89.618 0.964-173.108-34.942-220.216-88.372 15.92-77.706 85.034-136.558 167.234-136.558h286.444c1.816 11.128 2.696 22.632 2.696 34.432 0 12.534-1.534 24.792-4.376 36.722z" />
<glyph unicode="&#xea8a;" d="M437.006 141.838c0-75.068-46.39-134.392-177.758-139.176-76.984 43.786-141.49 106.952-186.908 182.866 23.69 58.496 97.692 103.046 182.316 102.114 24.022-0.252 46.41-4.114 66.744-10.7 55.908-38.866 101-63.152 112.324-107.448 2.114-8.964 3.282-18.206 3.282-27.656zM512 960c-147.94 0-281.196-62.77-374.666-163.098 36.934 20.452 80.538 32.638 126.902 32.638 67.068 0 256.438 0 256.438 0l-57.304-60.14h-67.31c47.496-27.212 72.752-83.248 72.752-145.012 0-56.692-31.416-102.38-75.78-137.058-43.28-33.802-51.492-47.966-51.492-76.734 0-24.542 51.722-61.098 75.5-78.936 82.818-62.112 99.578-101.184 99.578-178.87 0-78.726-68.936-157.104-185.866-183.742 56.348-21.338 117.426-33.048 181.248-33.048 282.77 0 512 229.23 512 512s-229.23 512-512 512zM768 576v-128h-64v128h-128v64h128v128h64v-128h128v-64h-128zM365.768 620.528c11.922-90.776-27.846-149.19-96.934-147.134-69.126 2.082-134.806 65.492-146.74 156.242-11.928 90.788 34.418 160.254 103.53 158.196 69.090-2.074 128.22-76.542 140.144-167.304zM220.886 317.932c-74.68 0-138.128-25.768-182.842-63.864-24.502 59.82-38.044 125.29-38.044 193.932 0 56.766 9.256 111.368 26.312 162.396 7.374-99.442 77.352-176.192 192.97-176.192 8.514 0 16.764 0.442 24.874 1.022-7.95-15.23-13.622-32.19-13.622-49.982 0-29.97 16.488-47.070 36.868-66.894-15.402 0-30.27-0.418-46.516-0.418z" />
<glyph unicode="&#xeaa1;" d="M800 544c-70.58 0-128-57.42-128-128s57.42-128 128-128c70.58 0 128 57.42 128 128s-57.42 128-128 128zM800 640v0c123.71 0 224-100.288 224-224 0-123.71-100.29-224-224-224s-224 100.29-224 224c0 123.712 100.29 224 224 224zM0 416c0 123.712 100.288 224 224 224s224-100.288 224-224c0-123.712-100.288-224-224-224s-224 100.288-224 224z" />
<glyph unicode="&#xeaa2;" d="M853.376 960h-682.688c-93.876 0-170.688-76.812-170.688-170.682v-682.626c0-93.942 76.812-170.692 170.688-170.692h682.682c93.874 0 170.63 76.754 170.63 170.696v682.622c0 93.87-76.756 170.682-170.624 170.682zM288 288c-88.366 0-160 71.634-160 160s71.634 160 160 160 160-71.634 160-160c0-88.366-71.634-160-160-160zM736 288c-88.368 0-160 71.634-160 160s71.632 160 160 160 160-71.634 160-160c0-88.366-71.632-160-160-160z" />
<glyph unicode="&#xeab1;" d="M512.008 947.358c-282.738 0-512.008-229.218-512.008-511.998 0-226.214 146.704-418.132 350.136-485.836 25.586-4.738 34.992 11.11 34.992 24.632 0 12.204-0.48 52.542-0.696 95.324-142.448-30.976-172.504 60.41-172.504 60.41-23.282 59.176-56.848 74.916-56.848 74.916-46.452 31.778 3.51 31.124 3.51 31.124 51.4-3.61 78.476-52.766 78.476-52.766 45.672-78.27 119.776-55.64 149.004-42.558 4.588 33.086 17.852 55.68 32.506 68.464-113.73 12.942-233.276 56.85-233.276 253.032 0 55.898 20.004 101.574 52.76 137.428-5.316 12.9-22.854 64.972 4.952 135.5 0 0 43.006 13.752 140.84-52.49 40.836 11.348 84.636 17.036 128.154 17.234 43.502-0.198 87.336-5.886 128.256-17.234 97.734 66.244 140.656 52.49 140.656 52.49 27.872-70.528 10.35-122.6 5.036-135.5 32.82-35.856 52.694-81.532 52.694-137.428 0-196.654-119.778-239.95-233.79-252.624 18.364-15.89 34.724-47.046 34.724-94.812 0-68.508-0.596-123.644-0.596-140.508 0-13.628 9.222-29.594 35.172-24.566 203.322 67.776 349.842 259.626 349.842 485.768 0 282.78-229.234 511.998-511.992 511.998z" />
<glyph unicode="&#xeac3;" d="M0.35 448l-0.35 312.074 384 52.144v-364.218zM448 821.518l511.872 74.482v-448h-511.872zM959.998 384l-0.126-448-511.872 72.016v375.984zM384 16.164l-383.688 52.594-0.020 315.242h383.708z" />
<glyph unicode="&#xeac6;" d="M975.31 382.062c2.812 20.8 4.43 41.946 4.43 63.472 0 258.31-210.542 467.744-470.206 467.744-25.808 0-51.11-2.12-75.732-6.16-44.144 28.768-96.684 45.534-153.224 45.534-155.046 0-280.578-125.616-280.578-280.612 0-56.396 16.598-108.788 45.18-152.778-3.85-24.034-5.818-48.646-5.818-73.718 0-258.352 210.434-467.764 470.17-467.764 29.314 0 57.854 2.854 85.592 7.866 43.1-26.738 93.868-42.296 148.292-42.296 155.004-0.002 280.584 125.646 280.584 280.626-0.006 58.586-17.92 113.056-48.69 158.086zM553.48 100.808c-149.41-7.784-219.328 25.274-283.378 85.382-71.53 67.134-42.796 143.708 15.48 147.602 58.244 3.888 93.214-66.026 124.3-85.472 31.048-19.376 149.188-63.52 211.588 7.816 67.952 77.656-45.188 117.84-128.118 130.004-118.406 17.532-267.9 81.584-256.27 207.814 11.632 126.148 107.164 190.828 207.7 199.952 128.154 11.634 211.582-19.414 277.57-75.72 76.3-65.058 35.016-137.788-13.598-143.64-48.424-5.818-102.808 107.008-209.582 108.704-110.054 1.728-184.434-114.522-48.572-147.568 135.932-33.010 281.5-46.572 333.922-170.834 52.458-124.274-81.508-256.25-231.042-264.040z" />
<glyph unicode="&#xeac8;" d="M852 960h-680c-94.6 0-172-77.4-172-172v-680c0-94.6 77.4-172 172-172h680c94.6 0 172 77.4 172 172v680c0 94.6-77.4 172-172 172zM384 128h-128v448h128v-448zM320 640c-35.346 0-64 28.654-64 64s28.654 64 64 64 64-28.654 64-64-28.654-64-64-64zM832 128h-128v256c0 35.346-28.654 64-64 64s-64-28.654-64-64v-256h-128v448h128v-79.472c26.398 36.264 66.752 79.472 112 79.472 79.53 0 144-71.634 144-160v-288z" />
<glyph unicode="&#xeac9;" d="M384 576h177.106v-90.782h2.532c24.64 44.194 84.958 90.782 174.842 90.782 186.946 0 221.52-116.376 221.52-267.734v-308.266h-184.61v273.278c0 65.184-1.334 149.026-96.028 149.026-96.148 0-110.82-70.986-110.82-144.292v-278.012h-184.542v576zM64 576h192v-576h-192v576zM256 736c0-53.019-42.981-96-96-96s-96 42.981-96 96c0 53.019 42.981 96 96 96s96-42.981 96-96z" />
</font>
</defs>
</svg>
